<svg xmlns="http://www.w3.org/2000/svg" fill="#fff" width="256" height="256" xml:space="preserve"><g style="stroke:none;stroke-width:0;stroke-dasharray:none;stroke-linecap:butt;stroke-linejoin:miter;stroke-miterlimit:10;fill:none;fill-rule:nonzero;opacity:1"><path d="M63.089 1.483H15.755a2.808 2.808 0 0 0-2.808 2.808v81.418a2.808 2.808 0 0 0 2.808 2.808h58.49a2.808 2.808 0 0 0 2.808-2.808V14.927L63.089 1.483zm2.807 13.444a2.808 2.808 0 0 1-2.808-2.808V1.483l13.964 13.444H65.896z" style="stroke:none;stroke-width:1;stroke-dasharray:none;stroke-linecap:butt;stroke-linejoin:miter;stroke-miterlimit:10;fill:none;fill-rule:nonzero;opacity:1" transform="translate(1.964 1.964) scale(2.8008)"/><path d="M75.569 83.678v2.031c0 .729-.594 1.323-1.324 1.323h-58.49c-.73 0-1.324-.594-1.324-1.323V4.291c0-.73.594-1.324 1.324-1.324h45.851v9.153a4.296 4.296 0 0 0 4.29 4.291h9.673v67.267c1.021.094 1.601 1.553 2.967-.566V14.94a1.574 1.574 0 0 0-.018-.248l-.001-.001v-.003l-.001-.003a1.28 1.28 0 0 0-.026-.123c-.001-.001.002-.003-.001-.003l-.001-.004a1.483 1.483 0 0 0-.392-.68h-.001l-.001-.001c-.007-.001-.002-.001-.003-.002.003-.005-.002-.002-.002-.002-.002-.001.001-.001-.003-.002.001-.001-.002-.001-.002-.002l-.003-.002L64.118.415l-.003-.003-.003-.003a1.488 1.488 0 0 0-.816-.394h-.001L63.29.014h-.014l-.005-.001c-.064-.01-.14-.01-.192-.013H15.755a4.296 4.296 0 0 0-4.291 4.291V85.71A4.296 4.296 0 0 0 15.755 90h58.49a4.296 4.296 0 0 0 4.291-4.29v-2.598a15.8 15.8 0 0 1-2.967.566zM64.573 4.971l8.8 8.473h-7.477a1.325 1.325 0 0 1-1.323-1.324V4.971z" style="stroke:none;stroke-width:1;stroke-dasharray:none;stroke-linecap:butt;stroke-linejoin:miter;stroke-miterlimit:10;fill:#fff;fill-rule:nonzero;opacity:1" transform="translate(1.964 1.964) scale(2.8008)"/><path d="M21.924 66.401a1.483 1.483 0 1 0 0 2.968h22.668a1.484 1.484 0 0 0 0-2.968H21.924zm0-26.703h47.294a1.484 1.484 0 0 0 0-2.968H21.924a1.483 1.483 0 1 0 0 2.968zm48.778 18.297c0-.819-.664-1.484-1.484-1.484H21.924a1.483 1.483 0 1 0 0 2.968h47.294a1.485 1.485 0 0 0 1.484-1.484zM21.924 29.808h22.668a1.484 1.484 0 0 0 0-2.968H21.924a1.483 1.483 0 1 0 0 2.968zm0 19.78h47.294a1.484 1.484 0 0 0 0-2.968H21.924a1.483 1.483 0 1 0 0 2.968z" style="stroke:none;stroke-width:1;stroke-dasharray:none;stroke-linecap:butt;stroke-linejoin:miter;stroke-miterlimit:10;fill:#fff;fill-rule:nonzero;opacity:1" transform="translate(1.964 1.964) scale(2.8008)"/></g></svg>