<svg fill="#fff" xmlns="http://www.w3.org/2000/svg" viewBox="0 0 1000 1000" xml:space="preserve"><path d="M840.8 990H355.7s-68.8-4.8-68.8-64.7v-32.7h387.6s70.9-5.5 70.9-62.7v-624h94.7s68.5 0 68.5 62.6v657.1s.3 64.4-67.8 64.4zM645.3 860.6H159.5c-65.4 0-68.1-67.1-68.1-67.1V72.6C91.4 10 156.8 10 156.8 10h490.5c59.9 0 65.7 62.6 65.7 62.6v720.8c.1 0-2.3 67.2-67.7 67.2zM369.9 174.2H206.4c-8.7 0-15.8 7.1-15.8 15.9 0 8.7 7.1 15.8 15.8 15.8h163.5c8.7 0 15.8-7.1 15.8-15.8 0-8.8-7.1-15.9-15.8-15.9zm0 65.4H206.4c-8.7 0-15.8 7.1-15.8 15.8 0 8.7 7.1 15.8 15.8 15.8h163.5c8.7 0 15.8-7.1 15.8-15.8 0-8.7-7.1-15.8-15.8-15.8zm0 65.4H205.3c-8.7 0-15.8 7.1-15.8 15.8 0 8.7 7.1 15.8 15.8 15.8h164.5c8.7 0 15.8-7.1 15.8-15.8.1-8.7-7-15.8-15.7-15.8zM583 403.1H221.2c-17.5 0-31.7 15.2-31.7 32.7 0 17.5 14.2 31.7 31.7 31.7H583c17.5 0 31.7-14.2 31.7-31.7-.1-17.5-14.3-32.7-31.7-32.7zm0 130.8H221.2c-17.5 0-31.7 15.2-31.7 32.7 0 17.5 14.2 31.7 31.7 31.7H583c17.5 0 31.7-14.2 31.7-31.7-.1-17.5-14.3-32.7-31.7-32.7zm0 130.8H221.2c-17.5 0-31.7 15.2-31.7 32.7 0 17.5 14.2 31.7 31.7 31.7H583c17.5 0 31.7-14.2 31.7-31.7-.1-17.5-14.3-32.7-31.7-32.7z"/></svg>