<?xml version="1.0" encoding="utf-8"?>
<!-- Svg Vector Icons : http://www.onlinewebfonts.com/icon -->
<!DOCTYPE svg PUBLIC "-//W3C//DTD SVG 1.1//EN" "http://www.w3.org/Graphics/SVG/1.1/DTD/svg11.dtd">
<svg version="1.1" fill="#ffffff" xmlns="http://www.w3.org/2000/svg" xmlns:xlink="http://www.w3.org/1999/xlink" x="0px" y="0px" viewBox="0 0 1000 1000" enable-background="new 0 0 1000 1000" xml:space="preserve">
<metadata> Svg Vector Icons : http://www.onlinewebfonts.com/icon </metadata>
<g><path d="M840.8,990H355.7c0,0-68.8-4.8-68.8-64.7v-32.7h387.6c0,0,70.9-5.5,70.9-62.7v-624h94.7c0,0,68.5,0,68.5,62.6v657.1C908.6,925.6,908.9,990,840.8,990z M645.3,860.6H159.5c-65.4,0-68.1-67.1-68.1-67.1V72.6C91.4,10,156.8,10,156.8,10h490.5c59.9,0,65.7,62.6,65.7,62.6v720.8C713.1,793.4,710.7,860.6,645.3,860.6z M369.9,174.2H206.4c-8.7,0-15.8,7.1-15.8,15.9c0,8.7,7.1,15.8,15.8,15.8h163.5c8.7,0,15.8-7.1,15.8-15.8C385.7,181.3,378.6,174.2,369.9,174.2z M369.9,239.6H206.4c-8.7,0-15.8,7.1-15.8,15.8c0,8.7,7.1,15.8,15.8,15.8h163.5c8.7,0,15.8-7.1,15.8-15.8C385.7,246.7,378.6,239.6,369.9,239.6z M369.9,305H205.3c-8.7,0-15.8,7.1-15.8,15.8c0,8.7,7.1,15.8,15.8,15.8h164.5c8.7,0,15.8-7.1,15.8-15.8C385.7,312.1,378.6,305,369.9,305z M583,403.1H221.2c-17.5,0-31.7,15.2-31.7,32.7c0,17.5,14.2,31.7,31.7,31.7H583c17.5,0,31.7-14.2,31.7-31.7C614.6,418.3,600.4,403.1,583,403.1z M583,533.9H221.2c-17.5,0-31.7,15.2-31.7,32.7c0,17.5,14.2,31.7,31.7,31.7H583c17.5,0,31.7-14.2,31.7-31.7C614.6,549.1,600.4,533.9,583,533.9z M583,664.7H221.2c-17.5,0-31.7,15.2-31.7,32.7c0,17.5,14.2,31.7,31.7,31.7H583c17.5,0,31.7-14.2,31.7-31.7C614.6,679.9,600.4,664.7,583,664.7z"/></g>
</svg>